<mxfile host="Electron" modified="2024-05-09T06:52:44.703Z" agent="Mozilla/5.0 (Macintosh; Intel Mac OS X 10_15_7) AppleWebKit/537.36 (KHTML, like Gecko) draw.io/22.1.2 Chrome/114.0.5735.289 Electron/25.9.4 Safari/537.36" etag="IrJv9xl57Wkd_YazHmoo" version="22.1.2" type="device">
  <diagram name="Page-1" id="LKGtWAGjhGELT0EoAQbZ">
    <mxGraphModel dx="1024" dy="610" grid="1" gridSize="10" guides="1" tooltips="1" connect="1" arrows="1" fold="1" page="1" pageScale="1" pageWidth="827" pageHeight="1169" math="0" shadow="0">
      <root>
        <mxCell id="0" />
        <mxCell id="1" parent="0" />
        <mxCell id="OgS8nnHMLr-laTn7fls2-49" value="" style="rounded=0;whiteSpace=wrap;html=1;strokeColor=none;" vertex="1" parent="1">
          <mxGeometry x="230" y="300" width="330" height="270" as="geometry" />
        </mxCell>
        <mxCell id="OgS8nnHMLr-laTn7fls2-19" value="" style="rounded=0;whiteSpace=wrap;html=1;fillColor=#f5f5f5;fontColor=#333333;strokeColor=#666666;dashed=1;" vertex="1" parent="1">
          <mxGeometry x="454" y="407" width="80" height="143" as="geometry" />
        </mxCell>
        <mxCell id="OgS8nnHMLr-laTn7fls2-18" value="" style="rounded=0;whiteSpace=wrap;html=1;strokeColor=#666666;fillColor=#f5f5f5;fontColor=#333333;" vertex="1" parent="1">
          <mxGeometry x="241" y="407" width="150" height="143" as="geometry" />
        </mxCell>
        <mxCell id="OgS8nnHMLr-laTn7fls2-36" style="edgeStyle=orthogonalEdgeStyle;rounded=1;orthogonalLoop=1;jettySize=auto;html=1;" edge="1" parent="1" source="OgS8nnHMLr-laTn7fls2-17" target="OgS8nnHMLr-laTn7fls2-1">
          <mxGeometry relative="1" as="geometry" />
        </mxCell>
        <mxCell id="OgS8nnHMLr-laTn7fls2-38" style="edgeStyle=orthogonalEdgeStyle;rounded=1;orthogonalLoop=1;jettySize=auto;html=1;" edge="1" parent="1" source="OgS8nnHMLr-laTn7fls2-17" target="OgS8nnHMLr-laTn7fls2-15">
          <mxGeometry relative="1" as="geometry" />
        </mxCell>
        <mxCell id="OgS8nnHMLr-laTn7fls2-17" value="" style="rounded=0;whiteSpace=wrap;html=1;fillColor=#dae8fc;strokeColor=#6c8ebf;dashed=1;" vertex="1" parent="1">
          <mxGeometry x="352" y="315" width="100" height="40" as="geometry" />
        </mxCell>
        <mxCell id="OgS8nnHMLr-laTn7fls2-1" value="APIM" style="image;aspect=fixed;html=1;points=[];align=center;fontSize=10;image=img/lib/azure2/app_services/API_Management_Services.svg;labelBackgroundColor=none;" vertex="1" parent="1">
          <mxGeometry x="294.59" y="428" width="43.59" height="40.24" as="geometry" />
        </mxCell>
        <mxCell id="OgS8nnHMLr-laTn7fls2-15" value="AOAI &lt;br style=&quot;font-size: 10px;&quot;&gt;Simulators" style="image;aspect=fixed;html=1;points=[];align=center;fontSize=10;image=img/lib/azure2/other/Worker_Container_App.svg;labelBackgroundColor=none;" vertex="1" parent="1">
          <mxGeometry x="476.88" y="431.5" width="34.25" height="33.24" as="geometry" />
        </mxCell>
        <mxCell id="OgS8nnHMLr-laTn7fls2-16" value="" style="sketch=0;aspect=fixed;pointerEvents=1;shadow=0;dashed=0;html=1;strokeColor=none;labelPosition=center;verticalLabelPosition=bottom;verticalAlign=top;align=center;fillColor=#00188D;shape=mxgraph.azure.script_file" vertex="1" parent="1">
          <mxGeometry x="359.00000000000006" y="322.5" width="23.5" height="25" as="geometry" />
        </mxCell>
        <mxCell id="OgS8nnHMLr-laTn7fls2-27" value="" style="group;labelBackgroundColor=none;" vertex="1" connectable="0" parent="1">
          <mxGeometry x="334" y="457" width="58.92" height="52" as="geometry" />
        </mxCell>
        <mxCell id="OgS8nnHMLr-laTn7fls2-2" value="&lt;font style=&quot;font-size: 8px;&quot;&gt;Eventhub&lt;/font&gt;" style="image;aspect=fixed;html=1;points=[];align=center;fontSize=12;image=img/lib/azure2/analytics/Event_Hubs.svg;" vertex="1" parent="OgS8nnHMLr-laTn7fls2-27">
          <mxGeometry x="17.021333333333335" y="15.813777777777767" width="22.75866666666667" height="20.378222222222227" as="geometry" />
        </mxCell>
        <mxCell id="OgS8nnHMLr-laTn7fls2-29" value="" style="group;fontSize=7;" vertex="1" connectable="0" parent="1">
          <mxGeometry x="231" y="456" width="66.23" height="54" as="geometry" />
        </mxCell>
        <mxCell id="OgS8nnHMLr-laTn7fls2-8" value="&lt;font style=&quot;font-size: 8px;&quot;&gt;Application&lt;br&gt;Insights&lt;/font&gt;" style="image;aspect=fixed;html=1;points=[];align=center;fontSize=12;image=img/lib/azure2/devops/Application_Insights.svg;imageBackground=none;labelBackgroundColor=none;" vertex="1" parent="OgS8nnHMLr-laTn7fls2-29">
          <mxGeometry x="22.061948888888903" y="8.399999999999984" width="18.0237278615754" height="25.79961045431898" as="geometry" />
        </mxCell>
        <mxCell id="OgS8nnHMLr-laTn7fls2-37" style="edgeStyle=orthogonalEdgeStyle;rounded=1;orthogonalLoop=1;jettySize=auto;html=1;entryX=0.024;entryY=0.518;entryDx=0;entryDy=0;entryPerimeter=0;" edge="1" parent="1" source="OgS8nnHMLr-laTn7fls2-1" target="OgS8nnHMLr-laTn7fls2-15">
          <mxGeometry relative="1" as="geometry" />
        </mxCell>
        <mxCell id="OgS8nnHMLr-laTn7fls2-40" value="&lt;font style=&quot;font-size: 9px;&quot;&gt;makes GenAI operations&lt;/font&gt;" style="text;html=1;strokeColor=none;fillColor=none;align=center;verticalAlign=middle;whiteSpace=wrap;rounded=0;spacing=0;" vertex="1" parent="1">
          <mxGeometry x="254" y="347.5" width="60" height="30" as="geometry" />
        </mxCell>
        <mxCell id="OgS8nnHMLr-laTn7fls2-41" value="&lt;font style=&quot;font-size: 9px;&quot;&gt;alters config of the backend&lt;/font&gt;" style="text;html=1;strokeColor=none;fillColor=none;align=center;verticalAlign=middle;whiteSpace=wrap;rounded=0;spacing=0;" vertex="1" parent="1">
          <mxGeometry x="496" y="350" width="60" height="30" as="geometry" />
        </mxCell>
        <mxCell id="OgS8nnHMLr-laTn7fls2-42" value="&lt;font style=&quot;font-size: 8px;&quot;&gt;backend&lt;/font&gt;" style="text;html=1;strokeColor=#C73500;fillColor=#fa6800;align=center;verticalAlign=middle;whiteSpace=wrap;rounded=0;fontColor=#FFFFFF;" vertex="1" parent="1">
          <mxGeometry x="454" y="534" width="42" height="15" as="geometry" />
        </mxCell>
        <mxCell id="OgS8nnHMLr-laTn7fls2-43" value="&lt;font style=&quot;font-size: 8px;&quot;&gt;gateway&lt;/font&gt;" style="text;html=1;strokeColor=#C73500;fillColor=#fa6800;align=center;verticalAlign=middle;whiteSpace=wrap;rounded=0;fontColor=#FFFFFF;" vertex="1" parent="1">
          <mxGeometry x="241.79000000000002" y="534" width="42" height="15" as="geometry" />
        </mxCell>
        <mxCell id="OgS8nnHMLr-laTn7fls2-47" value="end-to-end tests" style="text;html=1;strokeColor=none;fillColor=none;align=center;verticalAlign=middle;whiteSpace=wrap;rounded=0;fontSize=10;" vertex="1" parent="1">
          <mxGeometry x="381.5" y="320" width="60" height="30" as="geometry" />
        </mxCell>
      </root>
    </mxGraphModel>
  </diagram>
</mxfile>
